<svg width="36" height="26" viewBox="0 0 36 26" fill="none" xmlns="http://www.w3.org/2000/svg">
<path d="M1.8 3.6H34.2C34.6774 3.6 35.1352 3.41036 35.4728 3.07279C35.8104 2.73523 36 2.27739 36 1.8C36 1.32261 35.8104 0.864774 35.4728 0.527208C35.1352 0.189643 34.6774 0 34.2 0H1.8C1.32261 0 0.864773 0.189643 0.527208 0.527208C0.189642 0.864774 0 1.32261 0 1.8C0 2.27739 0.189642 2.73523 0.527208 3.07279C0.864773 3.41036 1.32261 3.6 1.8 3.6ZM34.2 10.8H1.8C1.32261 10.8 0.864773 10.9896 0.527208 11.3272C0.189642 11.6648 0 12.1226 0 12.6C0 13.0774 0.189642 13.5352 0.527208 13.8728C0.864773 14.2104 1.32261 14.4 1.8 14.4H34.2C34.6774 14.4 35.1352 14.2104 35.4728 13.8728C35.8104 13.5352 36 13.0774 36 12.6C36 12.1226 35.8104 11.6648 35.4728 11.3272C35.1352 10.9896 34.6774 10.8 34.2 10.8ZM34.2 21.6H1.8C1.32261 21.6 0.864773 21.7896 0.527208 22.1272C0.189642 22.4648 0 22.9226 0 23.4C0 23.8774 0.189642 24.3352 0.527208 24.6728C0.864773 25.0104 1.32261 25.2 1.8 25.2H34.2C34.6774 25.2 35.1352 25.0104 35.4728 24.6728C35.8104 24.3352 36 23.8774 36 23.4C36 22.9226 35.8104 22.4648 35.4728 22.1272C35.1352 21.7896 34.6774 21.6 34.2 21.6Z" fill="black"/>
</svg>
